<svg xmlns="http://www.w3.org/2000/svg" xmlns:xlink="http://www.w3.org/1999/xlink" width="150" zoomAndPan="magnify" viewBox="0 0 112.5 112.499997" height="150" preserveAspectRatio="xMidYMid meet" version="1.0"><defs><g/><clipPath id="7deb8e3ed2"><path d="M 72 48 L 76.890625 48 L 76.890625 55 L 72 55 Z M 72 48 " clip-rule="nonzero"/></clipPath><clipPath id="2e61ff864e"><path d="M 35.820312 48 L 41 48 L 41 55 L 35.820312 55 Z M 35.820312 48 " clip-rule="nonzero"/></clipPath><clipPath id="ec653d6124"><path d="M 71 55 L 76.890625 55 L 76.890625 59.351562 L 71 59.351562 Z M 71 55 " clip-rule="nonzero"/></clipPath><clipPath id="f36c072488"><path d="M 64 55 L 71 55 L 71 59.351562 L 64 59.351562 Z M 64 55 " clip-rule="nonzero"/></clipPath><clipPath id="583a782985"><path d="M 56 55 L 63 55 L 63 59.351562 L 56 59.351562 Z M 56 55 " clip-rule="nonzero"/></clipPath><clipPath id="95b96319da"><path d="M 49 55 L 56 55 L 56 59.351562 L 49 59.351562 Z M 49 55 " clip-rule="nonzero"/></clipPath><clipPath id="9e1f53f5bd"><path d="M 42 55 L 49 55 L 49 59.351562 L 42 59.351562 Z M 42 55 " clip-rule="nonzero"/></clipPath><clipPath id="bbf9f26774"><path d="M 35.820312 55 L 42 55 L 42 59.351562 L 35.820312 59.351562 Z M 35.820312 55 " clip-rule="nonzero"/></clipPath></defs><path fill="#097d4c" d="M 37.25 47.171875 C 38.003906 45.246094 39.039062 43.457031 40.335938 41.839844 L 42.6875 43.8125 C 41.621094 45.160156 40.761719 46.636719 40.132812 48.222656 Z M 37.25 47.171875 " fill-opacity="1" fill-rule="nonzero"/><path fill="#097d4c" d="M 40.992188 41.058594 C 42.359375 39.507812 43.941406 38.179688 45.703125 37.101562 L 47.75 40.640625 C 46.402344 41.476562 45.183594 42.5 44.125 43.6875 Z M 40.992188 41.058594 " fill-opacity="1" fill-rule="nonzero"/><path fill="#097d4c" d="M 46.585938 36.589844 C 48.402344 35.597656 50.34375 34.890625 52.375 34.484375 L 52.90625 37.503906 C 51.230469 37.84375 49.625 38.429688 48.121094 39.246094 Z M 46.585938 36.589844 " fill-opacity="1" fill-rule="nonzero"/><path fill="#097d4c" d="M 64.792969 39.25 C 63.289062 38.429688 61.683594 37.847656 60.007812 37.503906 L 60.539062 34.484375 C 62.570312 34.890625 64.511719 35.597656 66.328125 36.589844 Z M 64.792969 39.25 " fill-opacity="1" fill-rule="nonzero"/><path fill="#097d4c" d="M 68.792969 43.6875 C 67.730469 42.5 66.515625 41.480469 65.164062 40.640625 L 67.210938 37.101562 C 68.972656 38.179688 70.554688 39.507812 71.921875 41.058594 Z M 68.792969 43.6875 " fill-opacity="1" fill-rule="nonzero"/><path fill="#097d4c" d="M 72.78125 48.21875 C 72.148438 46.632812 71.292969 45.15625 70.226562 43.8125 L 72.578125 41.839844 C 73.875 43.460938 74.910156 45.25 75.660156 47.171875 Z M 72.78125 48.21875 " fill-opacity="1" fill-rule="nonzero"/><g clip-path="url(#7deb8e3ed2)"><path fill="#097d4c" d="M 72.992188 54.191406 C 72.945312 52.597656 72.671875 51.03125 72.171875 49.527344 L 76.011719 48.128906 C 76.667969 50.082031 77.027344 52.117188 77.074219 54.191406 Z M 72.992188 54.191406 " fill-opacity="1" fill-rule="nonzero"/></g><path fill="#097d4c" d="M 58.824219 38.332031 C 57.257812 38.105469 55.65625 38.105469 54.085938 38.332031 C 54.085938 38.332031 54 37.820312 54 37.820312 L 53.378906 34.308594 C 55.398438 34.003906 57.515625 34.003906 59.535156 34.308594 C 59.480469 34.625 58.859375 38.136719 58.824219 38.332031 Z M 58.824219 38.332031 " fill-opacity="1" fill-rule="nonzero"/><g clip-path="url(#2e61ff864e)"><path fill="#097d4c" d="M 35.839844 54.191406 C 35.890625 52.113281 36.246094 50.078125 36.902344 48.128906 L 40.742188 49.527344 C 40.246094 51.035156 39.96875 52.597656 39.921875 54.191406 Z M 35.839844 54.191406 " fill-opacity="1" fill-rule="nonzero"/></g><path fill="#097d4c" d="M 60.847656 50.1875 C 60.847656 51.972656 59.78125 53.507812 58.253906 54.191406 C 58.804688 53.242188 58.402344 51.34375 57.882812 50.929688 C 57.902344 50.972656 58.246094 51.667969 57.492188 52.191406 C 58.082031 50.890625 57.226562 49.609375 56.078125 48.898438 C 57.765625 50.789062 55.628906 52.59375 55.578125 52.632812 C 55.589844 52.597656 55.933594 51.320312 55.347656 50.738281 C 55.347656 52.027344 54.402344 52.300781 54.402344 53.199219 C 54.402344 53.558594 54.496094 53.898438 54.660156 54.191406 C 53.132812 53.507812 52.070312 51.972656 52.070312 50.1875 C 52.070312 48.269531 54.089844 47.683594 54.089844 44.925781 C 55.351562 46.191406 54.578125 48.980469 54.578125 48.980469 C 54.578125 48.980469 59.292969 45.082031 55.644531 41 C 58.101562 42.515625 59.933594 45.257812 58.664062 48.035156 C 60.304688 46.894531 59.523438 45.378906 59.5 45.332031 C 60.378906 46.214844 60.847656 47.683594 60.847656 50.1875 Z M 60.847656 50.1875 " fill-opacity="1" fill-rule="nonzero"/><g clip-path="url(#ec653d6124)"><path fill="#097d4c" d="M 71.050781 55.214844 L 77.074219 55.214844 L 77.074219 59.296875 L 71.050781 59.296875 Z M 71.050781 55.214844 " fill-opacity="1" fill-rule="nonzero"/></g><g clip-path="url(#f36c072488)"><path fill="#097d4c" d="M 64.003906 55.214844 L 70.03125 55.214844 L 70.03125 59.296875 L 64.003906 59.296875 Z M 64.003906 55.214844 " fill-opacity="1" fill-rule="nonzero"/></g><g clip-path="url(#583a782985)"><path fill="#097d4c" d="M 56.960938 55.214844 L 62.984375 55.214844 L 62.984375 59.296875 L 56.960938 59.296875 Z M 56.960938 55.214844 " fill-opacity="1" fill-rule="nonzero"/></g><g clip-path="url(#95b96319da)"><path fill="#097d4c" d="M 49.914062 55.214844 L 55.9375 55.214844 L 55.9375 59.296875 L 49.914062 59.296875 Z M 49.914062 55.214844 " fill-opacity="1" fill-rule="nonzero"/></g><g clip-path="url(#9e1f53f5bd)"><path fill="#097d4c" d="M 42.867188 55.214844 L 48.894531 55.214844 L 48.894531 59.296875 L 42.867188 59.296875 Z M 42.867188 55.214844 " fill-opacity="1" fill-rule="nonzero"/></g><g clip-path="url(#bbf9f26774)"><path fill="#097d4c" d="M 35.820312 55.214844 L 41.847656 55.214844 L 41.847656 59.296875 L 35.820312 59.296875 Z M 35.820312 55.214844 " fill-opacity="1" fill-rule="nonzero"/></g><path stroke-linecap="butt" transform="matrix(0.248494, 0, 0, 0.248494, 20.855953, 54.046282)" fill="none" stroke-linejoin="miter" d="M 165.573747 6.761861 C 166.674127 7.060536 167.522991 7.767923 168.13606 8.868302 C 168.733409 9.968682 168.890606 11.226259 168.591931 12.625313 C 168.308977 14.008647 167.334355 15.266224 165.652346 16.366604 C 163.294389 17.875696 160.716357 18.881757 157.933969 19.384788 C 155.15158 19.872099 152.274873 20.045016 149.288129 19.856379 C 146.301384 19.667743 143.314639 19.306189 140.327894 18.803159 C 138.693045 20.736683 136.22505 23.754867 132.923911 27.841991 C 129.622772 31.929116 125.724284 37.148059 121.212728 43.498822 C 119.216325 46.28121 117.125604 49.283675 114.956284 52.506215 C 112.771244 55.728755 110.460447 58.825538 108.023892 61.780843 C 105.587337 64.736149 102.977865 67.251302 100.211196 69.326304 C 97.428808 71.401305 94.410624 72.737481 91.156644 73.33483 C 87.902664 73.947898 84.36573 73.429148 80.54584 71.810018 C 77.810611 70.646759 75.782768 68.964751 74.430873 66.732552 C 73.094698 64.500353 72.387311 62.048079 72.277273 59.344289 C 72.182955 56.640499 72.607387 54.015307 73.566289 51.484434 C 74.540911 48.937841 75.987125 46.768521 77.889209 44.992194 C 79.807014 43.200147 82.133531 42.131207 84.853041 41.769654 C 87.58827 41.392381 89.914787 41.533858 91.848311 42.194086 C 93.797555 42.838594 95.338087 43.750337 96.454186 44.897876 C 97.601725 46.045415 98.293392 47.145794 98.544907 48.199015 C 98.969339 49.833864 98.890741 51.311517 98.277672 52.663412 C 97.680323 53.983868 96.642823 55.084247 95.16517 55.917392 C 95.16517 55.917392 95.16517 55.602998 95.16517 54.94277 C 95.16517 54.282542 95.039412 53.527996 94.772177 52.694852 C 94.520662 51.845987 93.954752 51.122881 93.074449 50.525532 C 92.225584 49.928183 90.920848 49.645228 89.2074 49.708107 C 87.462512 49.755266 85.921981 50.258297 84.585806 51.201479 C 83.26535 52.144662 82.16497 53.32364 81.331826 54.754133 C 80.498681 56.153188 79.964211 57.66228 79.712696 59.26569 C 79.4769 60.8691 79.602658 62.362473 80.074249 63.777247 C 80.813075 65.930847 81.944894 67.471378 83.501146 68.383121 C 85.041677 69.310584 86.818004 69.5621 88.830127 69.137667 C 90.85797 68.713235 92.964411 67.660015 95.16517 65.993726 C 97.271611 64.358876 99.393772 62.252435 101.547372 59.674402 C 103.700972 57.064931 105.870292 54.203944 108.071051 51.091441 C 110.28753 47.963219 112.504009 44.740679 114.767647 41.43954 C 117.015566 38.138401 119.263484 34.96302 121.527122 31.897676 C 123.775041 28.832333 126.022959 26.065664 128.286597 23.59767 C 130.534516 21.129676 132.766714 19.164712 134.983193 17.687059 C 133.364063 17.309786 131.760653 16.963953 130.188682 16.633839 C 128.600991 16.288005 127.139058 16.00505 125.771444 15.800694 C 122.407426 15.234785 119.404961 15.376262 116.76405 16.240846 C 114.107419 17.10543 111.92238 18.378726 110.193212 20.045016 C 108.464044 21.727024 107.237907 23.534791 106.49908 25.484035 C 105.98033 26.83593 105.807413 28.203545 105.98033 29.571159 C 106.168966 30.938774 106.49908 32.180631 107.002111 33.29673 C 107.505142 34.42855 107.976733 35.340293 108.416885 36.03196 C 108.872756 36.707907 109.092832 37.038021 109.092832 37.038021 C 106.687717 36.943703 104.691314 36.346354 103.119343 35.245974 C 101.547372 34.145595 100.415553 32.746541 99.723886 31.080251 C 99.047938 29.382523 98.764983 27.590476 98.890741 25.672671 C 99.032218 23.754867 99.566688 21.915661 100.478432 20.170773 C 101.390175 18.410166 102.72635 16.932513 104.455518 15.722096 C 106.750596 14.055806 109.297188 12.971146 112.079577 12.468116 C 114.861965 11.965085 117.675793 11.792168 120.505341 11.949365 C 123.334889 12.106562 125.99152 12.420957 128.475234 12.923987 C 130.974667 13.427018 133.033949 13.88289 134.653079 14.307322 C 137.121074 14.888951 139.872023 15.250504 142.874487 15.423421 C 145.892671 15.580618 148.816537 15.4863 151.646085 15.140466 C 154.475633 14.794633 156.78643 14.165844 158.562757 13.285541 C 160.244766 12.452396 161.596661 11.524933 162.618442 10.550311 C 163.640223 9.54425 164.394769 8.663946 164.86636 7.9094 C 165.337952 7.139134 165.573747 6.761861 165.573747 6.761861 Z M 146.049868 48.293333 L 148.187749 48.293333 C 146.615778 50.431213 144.88661 52.710571 143.015965 55.099967 C 141.161039 57.473643 139.258954 59.753001 137.30971 61.938041 C 135.376186 64.10736 133.52126 65.930847 131.744933 67.408499 C 129.968606 68.886152 128.396635 69.766456 127.02902 70.08085 C 124.87542 70.552441 123.334889 70.379524 122.391706 69.577819 C 121.448524 68.760394 120.992652 67.534257 121.008372 65.915127 C 121.039811 64.280277 121.417084 62.472511 122.17163 60.491827 C 122.894737 58.495424 123.853639 56.530461 125.064057 54.581217 C 126.274474 52.694852 127.516331 50.855646 128.805347 49.047879 C 130.094364 47.224393 131.273342 45.605263 132.342282 44.174769 C 133.411222 42.728556 134.291526 41.565297 134.967473 40.716433 C 135.659141 39.836129 135.989255 39.411697 135.989255 39.411697 C 135.989255 39.411697 136.665202 39.490296 137.985658 39.631773 C 139.337553 39.78897 141.286797 39.710372 143.864829 39.411697 C 143.691912 39.663213 143.157442 40.292001 142.229979 41.282343 C 141.318236 42.288404 140.217856 43.545981 138.897401 45.070793 C 137.592665 46.579885 136.209331 48.277613 134.763117 50.148259 C 133.332624 52.003184 131.996448 53.952428 130.754591 55.99599 C 129.512734 58.055272 128.538112 60.114554 127.815006 62.205276 C 127.076179 64.295997 126.824664 65.679331 127.04474 66.30812 C 127.249096 66.936908 127.720688 67.094105 128.475234 66.779711 C 129.245499 66.449597 130.125803 65.883688 131.147584 65.050543 C 132.169365 64.201679 133.143987 63.337095 134.05573 62.456791 C 134.967473 61.560768 135.67486 60.8691 136.146452 60.397509 C 136.838119 59.721562 137.718423 58.73122 138.771643 57.426484 C 139.856303 56.106028 141.035281 54.644096 142.308578 53.040685 C 143.597594 51.437275 144.855171 49.865304 146.049868 48.293333 Z M 146.128467 33.595405 C 146.128467 34.632906 145.766914 35.513209 145.043807 36.252036 C 144.304981 36.990862 143.424677 37.352415 142.371457 37.352415 C 141.365395 37.352415 140.500811 36.990862 139.761985 36.252036 C 139.023158 35.513209 138.661605 34.632906 138.661605 33.595405 C 138.661605 32.542184 139.023158 31.661881 139.761985 30.954494 C 140.500811 30.247107 141.365395 29.885554 142.371457 29.885554 C 143.424677 29.885554 144.304981 30.247107 145.043807 30.954494 C 145.766914 31.661881 146.128467 32.542184 146.128467 33.595405 Z M 181.372055 48.293333 L 183.494216 48.293333 C 181.922245 50.431213 180.208797 52.710571 178.338151 55.099967 C 176.483225 57.473643 174.581141 59.753001 172.631897 61.938041 C 170.698372 64.10736 168.843447 65.930847 167.06712 67.408499 C 165.290792 68.886152 163.703102 69.766456 162.335487 70.08085 C 160.401963 70.442403 158.971469 70.300926 158.012567 69.656418 C 157.069385 68.99619 156.550634 67.958689 156.440596 66.575355 C 156.346278 65.19202 156.519195 63.620049 157.006506 61.890881 C 154.947224 64.15452 152.730745 66.072324 150.341349 67.675734 C 147.951953 69.279145 145.656876 70.08085 143.456116 70.08085 C 141.412554 70.08085 139.887742 69.5621 138.91312 68.540318 C 137.907059 67.518537 137.34115 66.198082 137.183952 64.610391 C 137.011036 63.006981 137.199672 61.262093 137.749862 59.375728 C 138.300052 57.505083 139.164636 55.681596 140.312175 53.952428 C 142.465775 50.63557 144.918049 47.884621 147.668999 45.683861 C 150.419948 43.483102 153.139457 41.832533 155.811808 40.732153 C 158.484158 39.631773 160.763516 39.081583 162.665601 39.081583 C 164.756322 39.081583 166.013899 39.694652 166.469771 40.936509 C 166.909923 42.178366 166.847044 43.750337 166.281134 45.683861 C 167.58587 43.860375 168.67053 42.351283 169.535114 41.172305 C 170.415418 39.993327 170.83985 39.411697 170.83985 39.411697 C 170.83985 39.411697 171.562956 39.474576 172.99345 39.600334 C 174.439663 39.726091 176.451786 39.663213 179.029818 39.411697 C 178.809742 39.773251 178.039477 40.653554 176.719021 42.084048 C 175.414285 43.498822 173.889473 45.290869 172.128866 47.428749 C 170.383978 49.566629 168.67053 51.908866 166.988521 54.471179 C 165.306512 57.017772 164.017496 59.595804 163.121473 62.205276 C 162.398366 64.295997 162.131131 65.679331 162.335487 66.30812 C 162.555563 66.936908 163.042874 67.094105 163.79742 66.779711 C 164.551966 66.449597 165.44799 65.883688 166.469771 65.050543 C 167.491552 64.201679 168.466174 63.337095 169.393637 62.456791 C 170.30538 61.560768 170.997047 60.8691 171.452918 60.397509 C 172.144586 59.721562 173.040609 58.73122 174.109549 57.426484 C 175.17849 56.106028 176.357468 54.644096 177.646484 53.040685 C 178.91978 51.437275 180.161637 49.865304 181.372055 48.293333 Z M 160.386243 54.581217 L 162.256889 51.610192 C 163.215791 49.755266 163.970337 48.088977 164.551966 46.611324 C 165.117876 45.117952 165.306512 43.907534 165.086436 42.980071 C 164.88208 42.052608 164.080375 41.596737 162.665601 41.596737 C 161.65954 41.596737 160.323364 41.911131 158.609916 42.555639 C 156.912188 43.184428 155.088701 44.253368 153.139457 45.77818 C 151.190213 47.287272 149.351007 49.393713 147.621839 52.066063 C 146.788695 53.32364 146.034149 54.738414 145.326762 56.341824 C 144.603655 57.945234 144.100625 59.485766 143.78623 60.947699 C 143.471836 62.425352 143.503276 63.651489 143.896268 64.626111 C 144.289261 65.585013 145.185284 66.056604 146.615778 66.056604 C 147.810476 66.056604 149.19381 65.569293 150.734342 64.578952 C 152.290593 63.58861 153.831125 62.331033 155.387376 60.806222 C 156.927907 59.28141 158.279802 57.725159 159.443061 56.153188 Z M 186.49668 15.171906 C 187.754257 15.643497 188.540242 16.445202 188.886076 17.577021 C 189.23191 18.693121 189.20047 19.919258 188.807477 21.239714 C 188.414485 22.544449 187.769977 23.754867 186.873953 24.855247 C 185.97793 25.955626 184.956149 26.757331 183.77717 27.244642 C 182.598192 27.747673 181.372055 27.716234 180.114478 27.134604 C 181.482093 26.710172 182.503874 25.955626 183.179822 24.855247 C 183.871489 23.754867 183.950087 22.858844 183.431337 22.182896 C 182.944026 21.664146 182.425275 21.003918 181.843646 20.217932 C 181.277737 19.431947 181.167699 18.504484 181.544972 17.451264 C 181.953684 16.460922 182.645351 15.737815 183.619973 15.281944 C 184.594595 14.841792 185.553498 14.794633 186.49668 15.171906 Z M 212.842913 48.293333 C 211.318101 50.384054 209.620372 52.631973 207.718288 55.052808 C 205.831922 57.473643 203.929838 59.737281 202.012033 61.890881 C 200.109948 64.044482 198.270742 65.836528 196.478695 67.251302 C 194.435133 69.137667 191.621305 70.08085 188.052931 70.08085 C 185.757854 70.08085 183.855769 69.436342 182.378116 68.163045 C 180.869024 66.85831 179.894402 65.239179 179.45425 63.274216 C 178.998379 61.309252 179.139856 59.26569 179.878683 57.174969 C 180.711827 55.49296 181.733608 54.455459 182.912586 54.046747 C 184.091565 53.622314 185.129065 53.669474 186.025089 54.188224 C 186.921112 54.722694 187.314105 55.634437 187.188347 56.939173 C 185.883612 58.243909 185.176225 59.705842 185.081906 61.340692 C 184.971868 62.959822 185.317702 64.374595 186.103687 65.569293 C 186.873953 66.748272 187.927174 67.329901 189.247629 67.329901 C 190.725282 67.329901 191.794222 66.81115 192.47017 65.789369 C 193.146117 64.767588 193.476231 63.541451 193.444792 62.110957 C 193.429072 60.664744 193.067519 59.28141 192.391571 57.960954 C 190.552365 54.235383 189.73494 50.949964 189.955016 48.120416 C 190.159372 45.290869 191.133994 43.090109 192.894602 41.486699 C 194.655209 39.883289 196.903128 39.113023 199.638357 39.160182 C 201.194608 39.160182 202.483624 39.537455 203.521125 40.307721 C 204.542906 41.062267 205.187414 42.131207 205.454649 43.498822 C 205.706165 44.552042 205.548968 45.558104 204.967338 46.532726 C 204.401429 47.491628 203.552565 47.978939 202.452185 47.978939 C 201.886275 47.978939 201.383245 47.774583 200.958813 47.36587 C 200.53438 46.941438 200.330024 46.438407 200.330024 45.856778 C 200.330024 45.275149 200.53438 44.772118 200.958813 44.363406 C 201.383245 43.938974 201.886275 43.734617 202.452185 43.734617 C 202.71942 43.734617 203.049534 43.828936 203.473966 44.033292 C 203.473966 43.876095 203.379648 43.561701 203.206731 43.05867 C 203.033814 42.555639 202.7037 42.068328 202.232109 41.596737 C 201.760518 41.125146 201.021691 40.88935 200.01563 40.88935 C 198.144985 40.842191 196.79309 41.533858 195.959945 42.980071 C 195.15824 44.426285 194.875285 46.234051 195.095361 48.419091 C 195.331157 50.588411 196.085703 52.726291 197.34328 54.817012 C 198.082106 56.121748 198.600856 57.395045 198.899531 58.589743 C 199.229645 59.80016 199.339683 60.916259 199.229645 61.96948 C 199.559758 61.670806 199.842713 61.387851 200.094229 61.120616 C 200.361464 60.853381 200.58154 60.617585 200.723017 60.397509 C 201.414684 59.721562 202.279268 58.73122 203.363928 57.426484 C 204.432868 56.106028 205.611847 54.644096 206.900863 53.040685 C 208.189879 51.437275 209.431736 49.865304 210.642153 48.293333 Z M 212.842913 48.293333 " stroke="#fffbf0" stroke-width="13.275005" stroke-opacity="1" stroke-miterlimit="4"/><g fill="#097d4c" fill-opacity="1"><g transform="translate(38.817394, 71.440847)"><g><path d="M 23.1875 -15.71875 C 23.457031 -15.632812 23.664062 -15.457031 23.8125 -15.1875 C 23.96875 -14.914062 24.007812 -14.601562 23.9375 -14.25 C 23.863281 -13.90625 23.617188 -13.597656 23.203125 -13.328125 C 22.617188 -12.953125 21.976562 -12.703125 21.28125 -12.578125 C 20.59375 -12.453125 19.875 -12.410156 19.125 -12.453125 C 18.382812 -12.503906 17.644531 -12.59375 16.90625 -12.71875 C 16.5 -12.238281 15.882812 -11.488281 15.0625 -10.46875 C 14.25 -9.457031 13.28125 -8.164062 12.15625 -6.59375 C 11.664062 -5.894531 11.148438 -5.144531 10.609375 -4.34375 C 10.066406 -3.539062 9.488281 -2.769531 8.875 -2.03125 C 8.269531 -1.300781 7.625 -0.675781 6.9375 -0.15625 C 6.25 0.351562 5.5 0.679688 4.6875 0.828125 C 3.882812 0.984375 3.003906 0.859375 2.046875 0.453125 C 1.367188 0.160156 0.863281 -0.257812 0.53125 -0.8125 C 0.207031 -1.363281 0.03125 -1.972656 0 -2.640625 C -0.03125 -3.316406 0.0703125 -3.96875 0.3125 -4.59375 C 0.5625 -5.226562 0.921875 -5.765625 1.390625 -6.203125 C 1.867188 -6.648438 2.445312 -6.921875 3.125 -7.015625 C 3.800781 -7.109375 4.378906 -7.070312 4.859375 -6.90625 C 5.347656 -6.75 5.734375 -6.523438 6.015625 -6.234375 C 6.296875 -5.953125 6.46875 -5.679688 6.53125 -5.421875 C 6.632812 -5.015625 6.609375 -4.644531 6.453125 -4.3125 C 6.304688 -3.976562 6.050781 -3.707031 5.6875 -3.5 C 5.6875 -3.5 5.6875 -3.578125 5.6875 -3.734375 C 5.6875 -3.898438 5.65625 -4.085938 5.59375 -4.296875 C 5.53125 -4.503906 5.390625 -4.679688 5.171875 -4.828125 C 4.953125 -4.984375 4.628906 -5.054688 4.203125 -5.046875 C 3.773438 -5.035156 3.394531 -4.910156 3.0625 -4.671875 C 2.726562 -4.429688 2.457031 -4.132812 2.25 -3.78125 C 2.039062 -3.4375 1.90625 -3.066406 1.84375 -2.671875 C 1.789062 -2.273438 1.820312 -1.898438 1.9375 -1.546875 C 2.113281 -1.015625 2.394531 -0.632812 2.78125 -0.40625 C 3.164062 -0.175781 3.609375 -0.113281 4.109375 -0.21875 C 4.617188 -0.320312 5.144531 -0.582031 5.6875 -1 C 6.207031 -1.40625 6.734375 -1.925781 7.265625 -2.5625 C 7.804688 -3.207031 8.347656 -3.914062 8.890625 -4.6875 C 9.441406 -5.46875 9.992188 -6.269531 10.546875 -7.09375 C 11.109375 -7.914062 11.671875 -8.707031 12.234375 -9.46875 C 12.796875 -10.226562 13.359375 -10.914062 13.921875 -11.53125 C 14.484375 -12.144531 15.035156 -12.632812 15.578125 -13 C 15.171875 -13.09375 14.769531 -13.179688 14.375 -13.265625 C 13.988281 -13.347656 13.628906 -13.414062 13.296875 -13.46875 C 12.460938 -13.613281 11.710938 -13.578125 11.046875 -13.359375 C 10.390625 -13.140625 9.847656 -12.820312 9.421875 -12.40625 C 8.992188 -11.988281 8.6875 -11.539062 8.5 -11.0625 C 8.375 -10.726562 8.332031 -10.390625 8.375 -10.046875 C 8.414062 -9.703125 8.5 -9.390625 8.625 -9.109375 C 8.75 -8.835938 8.863281 -8.613281 8.96875 -8.4375 C 9.082031 -8.269531 9.140625 -8.1875 9.140625 -8.1875 C 8.546875 -8.21875 8.050781 -8.367188 7.65625 -8.640625 C 7.269531 -8.910156 6.988281 -9.253906 6.8125 -9.671875 C 6.644531 -10.085938 6.578125 -10.535156 6.609375 -11.015625 C 6.648438 -11.492188 6.78125 -11.945312 7 -12.375 C 7.226562 -12.8125 7.5625 -13.179688 8 -13.484375 C 8.570312 -13.898438 9.203125 -14.171875 9.890625 -14.296875 C 10.578125 -14.421875 11.269531 -14.460938 11.96875 -14.421875 C 12.675781 -14.378906 13.335938 -14.296875 13.953125 -14.171875 C 14.578125 -14.054688 15.09375 -13.945312 15.5 -13.84375 C 16.113281 -13.695312 16.796875 -13.601562 17.546875 -13.5625 C 18.296875 -13.519531 19.019531 -13.539062 19.71875 -13.625 C 20.425781 -13.71875 21 -13.875 21.4375 -14.09375 C 21.851562 -14.300781 22.1875 -14.53125 22.4375 -14.78125 C 22.695312 -15.03125 22.882812 -15.25 23 -15.4375 C 23.125 -15.625 23.1875 -15.71875 23.1875 -15.71875 Z M 23.1875 -15.71875 "/></g></g></g><g fill="#097d4c" fill-opacity="1"><g transform="translate(53.007483, 71.440847)"><g><path d="M 4.140625 -5.390625 L 4.671875 -5.390625 C 4.273438 -4.859375 3.847656 -4.296875 3.390625 -3.703125 C 2.929688 -3.109375 2.457031 -2.539062 1.96875 -2 C 1.488281 -1.457031 1.023438 -1.003906 0.578125 -0.640625 C 0.140625 -0.273438 -0.25 -0.0546875 -0.59375 0.015625 C -1.125 0.140625 -1.503906 0.101562 -1.734375 -0.09375 C -1.972656 -0.300781 -2.085938 -0.609375 -2.078125 -1.015625 C -2.078125 -1.421875 -1.984375 -1.867188 -1.796875 -2.359375 C -1.617188 -2.859375 -1.378906 -3.347656 -1.078125 -3.828125 C -0.773438 -4.296875 -0.460938 -4.753906 -0.140625 -5.203125 C 0.171875 -5.660156 0.460938 -6.066406 0.734375 -6.421875 C 1.003906 -6.773438 1.222656 -7.0625 1.390625 -7.28125 C 1.554688 -7.5 1.640625 -7.609375 1.640625 -7.609375 C 1.640625 -7.609375 1.804688 -7.585938 2.140625 -7.546875 C 2.472656 -7.503906 2.957031 -7.523438 3.59375 -7.609375 C 3.550781 -7.535156 3.414062 -7.375 3.1875 -7.125 C 2.96875 -6.882812 2.691406 -6.570312 2.359375 -6.1875 C 2.035156 -5.8125 1.691406 -5.390625 1.328125 -4.921875 C 0.972656 -4.460938 0.640625 -3.976562 0.328125 -3.46875 C 0.0234375 -2.96875 -0.210938 -2.457031 -0.390625 -1.9375 C -0.578125 -1.414062 -0.644531 -1.078125 -0.59375 -0.921875 C -0.539062 -0.765625 -0.414062 -0.722656 -0.21875 -0.796875 C -0.03125 -0.878906 0.1875 -1.023438 0.4375 -1.234375 C 0.695312 -1.441406 0.9375 -1.65625 1.15625 -1.875 C 1.382812 -2.09375 1.5625 -2.265625 1.6875 -2.390625 C 1.851562 -2.554688 2.066406 -2.800781 2.328125 -3.125 C 2.597656 -3.445312 2.890625 -3.804688 3.203125 -4.203125 C 3.523438 -4.609375 3.835938 -5.003906 4.140625 -5.390625 Z M 4.15625 -9.046875 C 4.15625 -8.785156 4.0625 -8.5625 3.875 -8.375 C 3.695312 -8.195312 3.476562 -8.109375 3.21875 -8.109375 C 2.976562 -8.109375 2.765625 -8.195312 2.578125 -8.375 C 2.398438 -8.5625 2.3125 -8.785156 2.3125 -9.046875 C 2.3125 -9.304688 2.398438 -9.523438 2.578125 -9.703125 C 2.765625 -9.878906 2.976562 -9.96875 3.21875 -9.96875 C 3.476562 -9.96875 3.695312 -9.878906 3.875 -9.703125 C 4.0625 -9.523438 4.15625 -9.304688 4.15625 -9.046875 Z M 4.15625 -9.046875 "/></g></g></g><g fill="#097d4c" fill-opacity="1"><g transform="translate(57.072963, 71.440847)"><g><path d="M 8.859375 -5.390625 L 9.375 -5.390625 C 8.988281 -4.859375 8.5625 -4.296875 8.09375 -3.703125 C 7.632812 -3.109375 7.164062 -2.539062 6.6875 -2 C 6.207031 -1.457031 5.742188 -1.003906 5.296875 -0.640625 C 4.847656 -0.273438 4.457031 -0.0546875 4.125 0.015625 C 3.644531 0.109375 3.285156 0.078125 3.046875 -0.078125 C 2.816406 -0.242188 2.6875 -0.5 2.65625 -0.84375 C 2.632812 -1.195312 2.679688 -1.585938 2.796875 -2.015625 C 2.285156 -1.453125 1.734375 -0.972656 1.140625 -0.578125 C 0.546875 -0.179688 -0.0195312 0.015625 -0.5625 0.015625 C -1.070312 0.015625 -1.453125 -0.109375 -1.703125 -0.359375 C -1.953125 -0.617188 -2.09375 -0.945312 -2.125 -1.34375 C -2.164062 -1.738281 -2.117188 -2.171875 -1.984375 -2.640625 C -1.847656 -3.109375 -1.632812 -3.554688 -1.34375 -3.984375 C -0.8125 -4.804688 -0.207031 -5.488281 0.46875 -6.03125 C 1.15625 -6.582031 1.832031 -6.992188 2.5 -7.265625 C 3.164062 -7.546875 3.734375 -7.6875 4.203125 -7.6875 C 4.722656 -7.6875 5.035156 -7.53125 5.140625 -7.21875 C 5.253906 -6.914062 5.242188 -6.523438 5.109375 -6.046875 C 5.429688 -6.492188 5.695312 -6.863281 5.90625 -7.15625 C 6.125 -7.457031 6.234375 -7.609375 6.234375 -7.609375 C 6.234375 -7.609375 6.410156 -7.585938 6.765625 -7.546875 C 7.128906 -7.515625 7.628906 -7.535156 8.265625 -7.609375 C 8.210938 -7.515625 8.023438 -7.289062 7.703125 -6.9375 C 7.378906 -6.582031 7 -6.140625 6.5625 -5.609375 C 6.125 -5.078125 5.695312 -4.492188 5.28125 -3.859375 C 4.863281 -3.222656 4.539062 -2.582031 4.3125 -1.9375 C 4.132812 -1.414062 4.070312 -1.078125 4.125 -0.921875 C 4.175781 -0.765625 4.296875 -0.722656 4.484375 -0.796875 C 4.671875 -0.878906 4.890625 -1.023438 5.140625 -1.234375 C 5.398438 -1.441406 5.644531 -1.65625 5.875 -1.875 C 6.101562 -2.09375 6.273438 -2.265625 6.390625 -2.390625 C 6.554688 -2.554688 6.773438 -2.800781 7.046875 -3.125 C 7.316406 -3.445312 7.609375 -3.804688 7.921875 -4.203125 C 8.242188 -4.609375 8.554688 -5.003906 8.859375 -5.390625 Z M 3.640625 -3.828125 L 4.109375 -4.578125 C 4.335938 -5.035156 4.523438 -5.445312 4.671875 -5.8125 C 4.816406 -6.1875 4.863281 -6.488281 4.8125 -6.71875 C 4.757812 -6.945312 4.554688 -7.0625 4.203125 -7.0625 C 3.953125 -7.0625 3.613281 -6.984375 3.1875 -6.828125 C 2.769531 -6.671875 2.316406 -6.398438 1.828125 -6.015625 C 1.347656 -5.640625 0.894531 -5.117188 0.46875 -4.453125 C 0.257812 -4.140625 0.0664062 -3.785156 -0.109375 -3.390625 C -0.285156 -2.992188 -0.410156 -2.613281 -0.484375 -2.25 C -0.566406 -1.882812 -0.554688 -1.582031 -0.453125 -1.34375 C -0.359375 -1.101562 -0.132812 -0.984375 0.21875 -0.984375 C 0.519531 -0.984375 0.859375 -1.101562 1.234375 -1.34375 C 1.617188 -1.59375 2.003906 -1.90625 2.390625 -2.28125 C 2.773438 -2.664062 3.113281 -3.050781 3.40625 -3.4375 Z M 3.640625 -3.828125 "/></g></g></g><g fill="#097d4c" fill-opacity="1"><g transform="translate(65.848927, 71.440847)"><g><path d="M 1.34375 -13.625 C 1.65625 -13.507812 1.851562 -13.3125 1.9375 -13.03125 C 2.03125 -12.75 2.023438 -12.441406 1.921875 -12.109375 C 1.828125 -11.785156 1.664062 -11.488281 1.4375 -11.21875 C 1.21875 -10.945312 0.960938 -10.75 0.671875 -10.625 C 0.378906 -10.5 0.078125 -10.507812 -0.234375 -10.65625 C 0.109375 -10.757812 0.363281 -10.945312 0.53125 -11.21875 C 0.695312 -11.488281 0.71875 -11.710938 0.59375 -11.890625 C 0.46875 -12.015625 0.332031 -12.175781 0.1875 -12.375 C 0.0507812 -12.570312 0.03125 -12.800781 0.125 -13.0625 C 0.226562 -13.300781 0.398438 -13.476562 0.640625 -13.59375 C 0.878906 -13.707031 1.113281 -13.71875 1.34375 -13.625 Z M 1.34375 -13.625 "/></g></g></g><g fill="#097d4c" fill-opacity="1"><g transform="translate(68.116213, 71.440847)"><g><path d="M 5.625 -5.390625 C 5.25 -4.867188 4.828125 -4.304688 4.359375 -3.703125 C 3.890625 -3.109375 3.414062 -2.546875 2.9375 -2.015625 C 2.46875 -1.484375 2.007812 -1.039062 1.5625 -0.6875 C 1.050781 -0.21875 0.351562 0.015625 -0.53125 0.015625 C -1.101562 0.015625 -1.570312 -0.140625 -1.9375 -0.453125 C -2.3125 -0.773438 -2.550781 -1.179688 -2.65625 -1.671875 C -2.769531 -2.160156 -2.738281 -2.664062 -2.5625 -3.1875 C -2.351562 -3.601562 -2.101562 -3.863281 -1.8125 -3.96875 C -1.519531 -4.070312 -1.257812 -4.054688 -1.03125 -3.921875 C -0.8125 -3.796875 -0.71875 -3.570312 -0.75 -3.25 C -1.070312 -2.914062 -1.242188 -2.546875 -1.265625 -2.140625 C -1.296875 -1.742188 -1.210938 -1.398438 -1.015625 -1.109375 C -0.816406 -0.816406 -0.554688 -0.671875 -0.234375 -0.671875 C 0.128906 -0.671875 0.394531 -0.796875 0.5625 -1.046875 C 0.738281 -1.296875 0.820312 -1.597656 0.8125 -1.953125 C 0.800781 -2.316406 0.710938 -2.660156 0.546875 -2.984375 C 0.0859375 -3.910156 -0.113281 -4.722656 -0.0625 -5.421875 C -0.0078125 -6.128906 0.234375 -6.679688 0.671875 -7.078125 C 1.109375 -7.484375 1.664062 -7.675781 2.34375 -7.65625 C 2.738281 -7.65625 3.0625 -7.5625 3.3125 -7.375 C 3.5625 -7.1875 3.722656 -6.925781 3.796875 -6.59375 C 3.859375 -6.332031 3.816406 -6.078125 3.671875 -5.828125 C 3.523438 -5.585938 3.316406 -5.46875 3.046875 -5.46875 C 2.898438 -5.46875 2.773438 -5.519531 2.671875 -5.625 C 2.566406 -5.726562 2.515625 -5.851562 2.515625 -6 C 2.515625 -6.144531 2.566406 -6.269531 2.671875 -6.375 C 2.773438 -6.476562 2.898438 -6.53125 3.046875 -6.53125 C 3.109375 -6.53125 3.191406 -6.503906 3.296875 -6.453125 C 3.296875 -6.492188 3.273438 -6.570312 3.234375 -6.6875 C 3.191406 -6.8125 3.109375 -6.929688 2.984375 -7.046875 C 2.867188 -7.171875 2.6875 -7.234375 2.4375 -7.234375 C 1.96875 -7.242188 1.632812 -7.066406 1.4375 -6.703125 C 1.238281 -6.347656 1.164062 -5.898438 1.21875 -5.359375 C 1.28125 -4.816406 1.46875 -4.285156 1.78125 -3.765625 C 1.957031 -3.441406 2.082031 -3.128906 2.15625 -2.828125 C 2.238281 -2.535156 2.269531 -2.257812 2.25 -2 C 2.320312 -2.070312 2.390625 -2.140625 2.453125 -2.203125 C 2.523438 -2.273438 2.582031 -2.335938 2.625 -2.390625 C 2.789062 -2.554688 3.003906 -2.800781 3.265625 -3.125 C 3.535156 -3.445312 3.828125 -3.804688 4.140625 -4.203125 C 4.460938 -4.609375 4.773438 -5.003906 5.078125 -5.390625 Z M 5.625 -5.390625 "/></g></g></g><g fill="#097d4c" fill-opacity="1"><g transform="translate(43.957236, 76.168058)"><g><path d="M 0.28125 0 L 0.28125 -3.28125 L 1.546875 -3.28125 C 1.765625 -3.28125 1.953125 -3.25 2.109375 -3.1875 C 2.265625 -3.125 2.382812 -3.019531 2.46875 -2.875 C 2.5625 -2.738281 2.609375 -2.554688 2.609375 -2.328125 C 2.609375 -2.097656 2.5625 -1.910156 2.46875 -1.765625 C 2.382812 -1.628906 2.265625 -1.523438 2.109375 -1.453125 C 1.953125 -1.390625 1.765625 -1.359375 1.546875 -1.359375 L 0.59375 -1.359375 L 0.59375 0 Z M 0.59375 -1.625 L 1.546875 -1.625 C 1.773438 -1.625 1.957031 -1.675781 2.09375 -1.78125 C 2.226562 -1.894531 2.296875 -2.078125 2.296875 -2.328125 C 2.296875 -2.566406 2.226562 -2.738281 2.09375 -2.84375 C 1.957031 -2.957031 1.773438 -3.015625 1.546875 -3.015625 L 0.59375 -3.015625 Z M 0.59375 -1.625 "/></g></g></g><g fill="#097d4c" fill-opacity="1"><g transform="translate(47.448572, 76.168058)"><g><path d="M 0.296875 0 L 0.296875 -3.28125 L 0.609375 -3.28125 L 0.609375 0 Z M 0.296875 0 "/></g></g></g><g fill="#097d4c" fill-opacity="1"><g transform="translate(49.132139, 76.168058)"><g><path d="M 0.125 0 L 0.125 -0.265625 L 2.140625 -3.015625 L 0.21875 -3.015625 L 0.21875 -3.28125 L 2.546875 -3.28125 L 2.546875 -3.015625 L 0.515625 -0.28125 L 0.515625 -0.265625 L 2.578125 -0.265625 L 2.578125 0 Z M 0.125 0 "/></g></g></g><g fill="#097d4c" fill-opacity="1"><g transform="translate(52.646473, 76.168058)"><g><path d="M 0.125 0 L 0.125 -0.265625 L 2.140625 -3.015625 L 0.21875 -3.015625 L 0.21875 -3.28125 L 2.546875 -3.28125 L 2.546875 -3.015625 L 0.515625 -0.28125 L 0.515625 -0.265625 L 2.578125 -0.265625 L 2.578125 0 Z M 0.125 0 "/></g></g></g><g fill="#097d4c" fill-opacity="1"><g transform="translate(56.160808, 76.168058)"><g><path d="M 0.03125 0 L 1.265625 -3.28125 L 1.609375 -3.28125 L 2.859375 0 L 2.53125 0 L 2.15625 -1.015625 L 0.71875 -1.015625 L 0.34375 0 Z M 0.796875 -1.265625 L 2.078125 -1.265625 L 1.4375 -2.96875 Z M 0.796875 -1.265625 "/></g></g></g><g fill="#097d4c" fill-opacity="1"><g transform="translate(59.826937, 76.168058)"><g><path d="M 0.28125 0 L 0.28125 -3.28125 L 1.625 -3.28125 C 1.945312 -3.28125 2.203125 -3.203125 2.390625 -3.046875 C 2.578125 -2.898438 2.671875 -2.671875 2.671875 -2.359375 C 2.671875 -2.117188 2.601562 -1.925781 2.46875 -1.78125 C 2.34375 -1.644531 2.171875 -1.554688 1.953125 -1.515625 C 2.085938 -1.492188 2.195312 -1.441406 2.28125 -1.359375 C 2.375 -1.285156 2.441406 -1.191406 2.484375 -1.078125 C 2.523438 -0.972656 2.554688 -0.863281 2.578125 -0.75 C 2.597656 -0.632812 2.613281 -0.519531 2.625 -0.40625 C 2.632812 -0.300781 2.644531 -0.210938 2.65625 -0.140625 C 2.664062 -0.078125 2.6875 -0.0390625 2.71875 -0.03125 L 2.71875 0 L 2.390625 0 C 2.359375 -0.0195312 2.335938 -0.0664062 2.328125 -0.140625 C 2.316406 -0.222656 2.304688 -0.316406 2.296875 -0.421875 C 2.296875 -0.523438 2.285156 -0.628906 2.265625 -0.734375 C 2.242188 -0.847656 2.207031 -0.953125 2.15625 -1.046875 C 2.101562 -1.140625 2.03125 -1.21875 1.9375 -1.28125 C 1.851562 -1.34375 1.738281 -1.375 1.59375 -1.375 L 0.59375 -1.375 L 0.59375 0 Z M 0.59375 -1.640625 L 1.53125 -1.640625 C 1.769531 -1.640625 1.96875 -1.695312 2.125 -1.8125 C 2.28125 -1.925781 2.359375 -2.097656 2.359375 -2.328125 C 2.359375 -2.578125 2.285156 -2.753906 2.140625 -2.859375 C 1.992188 -2.960938 1.789062 -3.015625 1.53125 -3.015625 L 0.59375 -3.015625 Z M 0.59375 -1.640625 "/></g></g></g><g fill="#097d4c" fill-opacity="1"><g transform="translate(63.470069, 76.168058)"><g><path d="M 0.296875 0 L 0.296875 -3.28125 L 0.609375 -3.28125 L 0.609375 0 Z M 0.296875 0 "/></g></g></g><g fill="#097d4c" fill-opacity="1"><g transform="translate(65.153636, 76.168058)"><g><path d="M 0.03125 0 L 1.265625 -3.28125 L 1.609375 -3.28125 L 2.859375 0 L 2.53125 0 L 2.15625 -1.015625 L 0.71875 -1.015625 L 0.34375 0 Z M 0.796875 -1.265625 L 2.078125 -1.265625 L 1.4375 -2.96875 Z M 0.796875 -1.265625 "/></g></g></g></svg>